<svg width="276" height="90" viewBox="0 0 276 90" fill="none" xmlns="http://www.w3.org/2000/svg">
<path d="M3 11.8871C3 3.12517 3 3 11.6368 3" stroke="#E45050" stroke-width="4.06592"/>
<path d="M3 68.6136C3 77.3756 3 77.5007 11.6368 77.5007" stroke="#33D525" stroke-width="4.06592"/>
<path d="M76.9668 68.6136C76.9668 77.3756 76.9668 77.5007 68.33 77.5007" stroke="#2C56C2" stroke-width="4.06592"/>
<path d="M77 11.8871C77 3.12517 77 3 68.3632 3" stroke="#F4CC3D" stroke-width="4.06592"/>
<path d="M16 21.0583C16 17.27 18.4544 16.1076 19.6817 16H26.181V45.5784L33.2294 38.573L40.2778 45.5784V16H48.762C60.7815 16 57.5073 38.9238 49.7846 38.9238C63.903 38.9238 66.7746 64 53.1414 64H19.8982C16.9529 64 16 61.5247 16 60.1256V21.0583Z" fill="#E7E9FF"/>
<path d="M26 46V16H41V46L33.5 38.6415L26 46Z" fill="#B3B9FF"/>
<path d="M120.75 49.75C121.217 49.8833 121.817 49.9833 122.55 50.05C123.283 50.0833 123.983 50.1 124.65 50.1C125.983 50.1 127.083 49.8333 127.95 49.3C128.85 48.7333 129.3 47.8667 129.3 46.7C129.3 45.6 128.933 44.8167 128.2 44.35C127.467 43.8833 126.35 43.65 124.85 43.65H120.75V49.75ZM120.75 37.55H124.4C125.833 37.55 126.867 37.2833 127.5 36.75C128.167 36.2167 128.5 35.4333 128.5 34.4C128.5 33.5 128.117 32.7833 127.35 32.25C126.617 31.7167 125.5 31.45 124 31.45C123.5 31.45 122.917 31.4667 122.25 31.5C121.617 31.5333 121.117 31.5833 120.75 31.65V37.55ZM124 56.8C123.433 56.8 122.767 56.7833 122 56.75C121.233 56.7167 120.433 56.65 119.6 56.55C118.8 56.45 118 56.3167 117.2 56.15C116.4 56.0167 115.667 55.8167 115 55.55C113.167 54.85 112.25 53.6333 112.25 51.9V28.55C112.25 27.85 112.433 27.3167 112.8 26.95C113.2 26.55 113.733 26.2333 114.4 26C115.533 25.6 116.95 25.3167 118.65 25.15C120.35 24.95 122.1 24.85 123.9 24.85C128.167 24.85 131.45 25.5667 133.75 27C136.05 28.4333 137.2 30.65 137.2 33.65C137.2 35.15 136.767 36.45 135.9 37.55C135.033 38.6167 133.867 39.4 132.4 39.9C134.067 40.3667 135.45 41.2167 136.55 42.45C137.683 43.6833 138.25 45.2333 138.25 47.1C138.25 50.4 137.017 52.85 134.55 54.45C132.117 56.0167 128.6 56.8 124 56.8ZM167.561 43.85C167.561 45.9167 167.244 47.7667 166.611 49.4C165.977 51 165.077 52.35 163.911 53.45C162.777 54.55 161.411 55.3833 159.811 55.95C158.211 56.5167 156.427 56.8 154.461 56.8C152.494 56.8 150.711 56.5 149.111 55.9C147.511 55.3 146.127 54.45 144.961 53.35C143.827 52.2167 142.944 50.85 142.311 49.25C141.677 47.65 141.361 45.85 141.361 43.85C141.361 41.8833 141.677 40.1 142.311 38.5C142.944 36.9 143.827 35.55 144.961 34.45C146.127 33.3167 147.511 32.45 149.111 31.85C150.711 31.25 152.494 30.95 154.461 30.95C156.427 30.95 158.211 31.2667 159.811 31.9C161.411 32.5 162.777 33.3667 163.911 34.5C165.077 35.6 165.977 36.95 166.611 38.55C167.244 40.15 167.561 41.9167 167.561 43.85ZM150.061 43.85C150.061 45.8833 150.444 47.45 151.211 48.55C152.011 49.6167 153.111 50.15 154.511 50.15C155.911 50.15 156.977 49.6 157.711 48.5C158.477 47.4 158.861 45.85 158.861 43.85C158.861 41.85 158.477 40.3167 157.711 39.25C156.944 38.15 155.861 37.6 154.461 37.6C153.061 37.6 151.977 38.15 151.211 39.25C150.444 40.3167 150.061 41.85 150.061 43.85ZM180.207 55.95C179.874 56.05 179.341 56.15 178.607 56.25C177.907 56.35 177.174 56.4 176.407 56.4C175.674 56.4 175.007 56.35 174.407 56.25C173.841 56.15 173.357 55.95 172.957 55.65C172.557 55.35 172.241 54.95 172.007 54.45C171.807 53.9167 171.707 53.2333 171.707 52.4V37.4C171.707 36.6333 171.841 35.9833 172.107 35.45C172.407 34.8833 172.824 34.3833 173.357 33.95C173.891 33.5167 174.541 33.1333 175.307 32.8C176.107 32.4333 176.957 32.1167 177.857 31.85C178.757 31.5833 179.691 31.3833 180.657 31.25C181.624 31.0833 182.591 31 183.557 31C185.157 31 186.424 31.3167 187.357 31.95C188.291 32.55 188.757 33.55 188.757 34.95C188.757 35.4167 188.691 35.8833 188.557 36.35C188.424 36.7833 188.257 37.1833 188.057 37.55C187.357 37.55 186.641 37.5833 185.907 37.65C185.174 37.7167 184.457 37.8167 183.757 37.95C183.057 38.0833 182.391 38.2333 181.757 38.4C181.157 38.5333 180.641 38.7 180.207 38.9V55.95ZM196.845 49.8C196.479 48.9667 196.079 48.0333 195.645 47C195.245 45.9667 194.812 44.7833 194.345 43.45C193.912 42.1167 193.445 40.6 192.945 38.9C192.479 37.1667 191.979 35.1833 191.445 32.95C191.912 32.4833 192.529 32.0833 193.295 31.75C194.095 31.3833 194.962 31.2 195.895 31.2C197.062 31.2 198.029 31.45 198.795 31.95C199.562 32.4167 200.129 33.3167 200.495 34.65L204.445 48.4H204.645C205.045 47.2667 205.429 46.0333 205.795 44.7C206.195 43.3667 206.579 42 206.945 40.6C207.312 39.1667 207.645 37.75 207.945 36.35C208.279 34.9167 208.562 33.5167 208.795 32.15C209.995 31.5167 211.312 31.2 212.745 31.2C213.912 31.2 214.879 31.45 215.645 31.95C216.412 32.45 216.795 33.3167 216.795 34.55C216.795 35.45 216.679 36.5 216.445 37.7C216.212 38.8667 215.895 40.1167 215.495 41.45C215.129 42.7833 214.679 44.1667 214.145 45.6C213.645 47 213.112 48.3833 212.545 49.75C211.979 51.1167 211.395 52.4167 210.795 53.65C210.195 54.85 209.612 55.9333 209.045 56.9C208.112 58.5333 207.245 59.8667 206.445 60.9C205.645 61.9333 204.879 62.7333 204.145 63.3C203.412 63.9 202.679 64.3 201.945 64.5C201.212 64.7333 200.445 64.85 199.645 64.85C198.245 64.85 197.112 64.4333 196.245 63.6C195.379 62.7667 194.862 61.6833 194.695 60.35C195.762 59.5167 196.829 58.5833 197.895 57.55C198.962 56.55 199.929 55.5167 200.795 54.45C200.229 54.2833 199.612 53.9 198.945 53.3C198.312 52.6667 197.612 51.5 196.845 49.8ZM236.684 31.8C234.118 31.8 232.151 32.5833 230.784 34.15C229.418 35.7167 228.734 37.9333 228.734 40.8C228.734 43.7 229.484 45.9333 230.984 47.5C232.518 49.0667 234.568 49.85 237.134 49.85C238.501 49.85 239.651 49.6667 240.584 49.3C241.551 48.9333 242.468 48.5167 243.334 48.05C243.901 48.5167 244.334 49.0833 244.634 49.75C244.968 50.3833 245.134 51.1333 245.134 52C245.134 53.3667 244.368 54.5333 242.834 55.5C241.334 56.4333 239.034 56.9 235.934 56.9C233.701 56.9 231.601 56.5833 229.634 55.95C227.668 55.3167 225.951 54.35 224.484 53.05C223.018 51.7167 221.851 50.05 220.984 48.05C220.151 46.0167 219.734 43.6 219.734 40.8C219.734 38.2 220.134 35.9167 220.934 33.95C221.768 31.95 222.884 30.2667 224.284 28.9C225.718 27.5333 227.384 26.5 229.284 25.8C231.184 25.1 233.218 24.75 235.384 24.75C238.451 24.75 240.818 25.25 242.484 26.25C244.184 27.25 245.034 28.5333 245.034 30.1C245.034 30.9667 244.818 31.7167 244.384 32.35C243.951 32.9833 243.451 33.4833 242.884 33.85C242.018 33.2833 241.084 32.8 240.084 32.4C239.118 32 237.984 31.8 236.684 31.8ZM273.664 43.85C273.664 45.9167 273.347 47.7667 272.714 49.4C272.081 51 271.181 52.35 270.014 53.45C268.881 54.55 267.514 55.3833 265.914 55.95C264.314 56.5167 262.531 56.8 260.564 56.8C258.597 56.8 256.814 56.5 255.214 55.9C253.614 55.3 252.231 54.45 251.064 53.35C249.931 52.2167 249.047 50.85 248.414 49.25C247.781 47.65 247.464 45.85 247.464 43.85C247.464 41.8833 247.781 40.1 248.414 38.5C249.047 36.9 249.931 35.55 251.064 34.45C252.231 33.3167 253.614 32.45 255.214 31.85C256.814 31.25 258.597 30.95 260.564 30.95C262.531 30.95 264.314 31.2667 265.914 31.9C267.514 32.5 268.881 33.3667 270.014 34.5C271.181 35.6 272.081 36.95 272.714 38.55C273.347 40.15 273.664 41.9167 273.664 43.85ZM256.164 43.85C256.164 45.8833 256.547 47.45 257.314 48.55C258.114 49.6167 259.214 50.15 260.614 50.15C262.014 50.15 263.081 49.6 263.814 48.5C264.581 47.4 264.964 45.85 264.964 43.85C264.964 41.85 264.581 40.3167 263.814 39.25C263.047 38.15 261.964 37.6 260.564 37.6C259.164 37.6 258.081 38.15 257.314 39.25C256.547 40.3167 256.164 41.85 256.164 43.85Z" fill="#303030"/>
</svg>
